<?xml version="1.0" encoding="utf-8"?>
<!-- Generator: Adobe Illustrator 25.4.1, SVG Export Plug-In . SVG Version: 6.00 Build 0)  -->
<svg version="1.1" id="Layer_1" xmlns="http://www.w3.org/2000/svg" xmlns:xlink="http://www.w3.org/1999/xlink" x="0px" y="0px"
	 viewBox="0 0 198.7 164.2" style="enable-background:new 0 0 198.7 164.2;" xml:space="preserve">
<style type="text/css">
	.st0{fill:#CAC9C9;}
	.st1{fill:#6D816E;}
	.st2{fill:#FFFFFF;}
	.st3{fill:#989898;}
</style>
<path class="st0" d="M55.1,59.8L30.8,35.5c-1.7-1.7-4.5-1.6-6,0.2c-30.6,36.2-30.6,89.6,0,125.8c1.5,1.8,4.3,1.9,6,0.2l24.3-24.3
	c1.4-1.4,1.6-3.7,0.4-5.3c-15.1-19.7-15.1-47.2,0-66.9C56.7,63.6,56.5,61.3,55.1,59.8z"/>
<path class="st0" d="M138.1,54.5l24.3-24.3c1.7-1.7,1.6-4.5-0.2-6C126-6.5,72.6-6.5,36.4,24.1c-1.8,1.5-1.9,4.3-0.2,6l24.3,24.3
	c1.4,1.4,3.7,1.6,5.3,0.4c19.7-15.1,47.2-15.1,66.9,0C134.4,56.1,136.7,55.9,138.1,54.5z"/>
<path class="st1" d="M167.8,35.5l-24.3,24.3c-1.4,1.4-1.6,3.7-0.4,5.3c15.1,19.7,15.1,47.2,0,66.9c-1.2,1.6-1.1,3.9,0.4,5.3
	l24.3,24.3c1.7,1.7,4.5,1.6,6-0.2c30.6-36.2,30.6-89.6,0-125.8C172.3,33.9,169.5,33.8,167.8,35.5z"/>
<g>
	<polygon class="st2" points="96.2,24.8 98.9,25.6 101.7,21.6 104.4,22.2 107.5,16.4 107.7,18.4 108.5,18.3 108,14.1 104.3,16.6 
		104.7,17.2 106.5,16 103.8,21 101.2,20.4 98.5,24.4 95.8,23.6 92.7,28.2 93.5,28.8 	"/>
	<polygon class="st2" points="91.7,12.4 90.6,12.4 90.6,31.4 108.1,31.4 108.1,30.3 91.7,30.3 	"/>
</g>
<g>
	<path class="st2" d="M183.1,105.8h-16.5c-0.7,0-1.3-0.6-1.3-1.3V88c0-0.7,0.6-1.3,1.3-1.3h16.5c0.7,0,1.3,0.6,1.3,1.3v16.5
		C184.4,105.2,183.8,105.8,183.1,105.8z M166.6,87.6c-0.2,0-0.4,0.2-0.4,0.4v16.5c0,0.2,0.2,0.4,0.4,0.4h16.5c0.2,0,0.4-0.2,0.4-0.4
		V88c0-0.2-0.2-0.4-0.4-0.4H166.6z"/>
	<polygon class="st2" points="172.6,101.3 169.6,97.8 170.3,97.1 172.6,99.8 179.9,91.5 180.6,92.2 	"/>
</g>
<g>
	<path class="st2" d="M22.3,105.7c-3.9,0-7.7-2.2-9.5-6c-1.2-2.5-1.3-5.4-0.4-8c0.9-2.6,2.9-4.8,5.4-5.9c2.5-1.2,5.4-1.3,8-0.4
		c2.6,0.9,4.8,2.9,5.9,5.4c2.5,5.2,0.2,11.5-5,14C25.4,105.4,23.8,105.7,22.3,105.7z M22.3,85.7c-1.4,0-2.8,0.3-4.1,0.9
		c-2.3,1.1-4,3-4.9,5.4s-0.7,5,0.4,7.3c2.2,4.7,7.9,6.8,12.7,4.5c4.7-2.2,6.8-7.9,4.5-12.7c-1.1-2.3-3-4-5.4-4.9
		C24.5,85.9,23.4,85.7,22.3,85.7z"/>
	
		<rect x="29.8" y="102.4" transform="matrix(0.7534 -0.6576 0.6576 0.7534 -61.6334 46.1748)" class="st2" width="1.9" height="5.8"/>
</g>
<g>
	<rect x="21.7" y="90.3" class="st2" width="1.5" height="6.5"/>
	<circle class="st2" cx="22.4" cy="98.7" r="1"/>
</g>
<path class="st3" d="M148.2,95.9l-42.9-3.4c-1.7-2.6-5.1-3.6-8-2.2c-3.1,1.5-4.4,5.3-2.8,8.4c1.5,3.1,5.3,4.4,8.4,2.8
	c1.1-0.5,2-1.4,2.5-2.3L148.2,95.9z"/>
</svg>
