<?xml version="1.0" encoding="utf-8"?>
<!-- Generator: Adobe Illustrator 25.4.1, SVG Export Plug-In . SVG Version: 6.00 Build 0)  -->
<svg version="1.1" id="Layer_1" xmlns="http://www.w3.org/2000/svg" xmlns:xlink="http://www.w3.org/1999/xlink" x="0px" y="0px"
	 viewBox="0 0 28.9 28.1" style="enable-background:new 0 0 28.9 28.1;" xml:space="preserve">
<style type="text/css">
	.st0{fill:#864E55;}
</style>
<g>
	<path class="st0" d="M26.9,25.9l-4.1-4.7c1.2-1.2,2.2-2.7,2.8-4.4c1.1-3,0.9-6.2-0.5-9.1c-1.4-2.9-3.8-5-6.7-6.1
		c-3-1.1-6.2-0.9-9.1,0.5c-2.9,1.4-5,3.8-6.1,6.7c-1.1,3-0.9,6.2,0.5,9.1s3.8,5,6.7,6.1c1.3,0.5,2.7,0.7,4,0.7
		c1.7,0,3.5-0.4,5.1-1.2c0.6-0.3,1.1-0.6,1.6-1l4.1,4.7L26.9,25.9z M19,22.6c-2.6,1.2-5.5,1.4-8.2,0.4c-2.7-1-4.9-2.9-6.1-5.5
		c-1.2-2.6-1.4-5.5-0.4-8.2c1-2.7,2.9-4.9,5.5-6.1c1.5-0.7,3-1,4.6-1c1.2,0,2.4,0.2,3.6,0.6c2.7,1,4.9,2.9,6.1,5.5
		C26.7,13.6,24.4,20,19,22.6z"/>
	<rect x="13.7" y="7.2" class="st0" width="1.7" height="7.3"/>
	<path class="st0" d="M14.5,15.6c-0.6,0-1.1,0.5-1.1,1.1c0,0.6,0.5,1.1,1.1,1.1c0.6,0,1.1-0.5,1.1-1.1
		C15.6,16.1,15.1,15.6,14.5,15.6z"/>
</g>
</svg>
