<?xml version="1.0" encoding="utf-8"?>
<!-- Generator: Adobe Illustrator 25.4.1, SVG Export Plug-In . SVG Version: 6.00 Build 0)  -->
<svg version="1.1" id="Layer_1" xmlns="http://www.w3.org/2000/svg" xmlns:xlink="http://www.w3.org/1999/xlink" x="0px" y="0px"
	 viewBox="0 0 28.9 28.1" style="enable-background:new 0 0 28.9 28.1;" xml:space="preserve">
<style type="text/css">
	.st0{fill:#6D816E;}
</style>
<path class="st0" d="M23.1,23.9H5.9c-0.7,0-1.3-0.6-1.3-1.3V5.4c0-0.7,0.6-1.3,1.3-1.3h17.2c0.7,0,1.3,0.6,1.3,1.3v17.2
	C24.4,23.3,23.8,23.9,23.1,23.9z M5.9,4.9c-0.3,0-0.5,0.2-0.5,0.5v17.2c0,0.3,0.2,0.5,0.5,0.5h17.2c0.3,0,0.5-0.2,0.5-0.5V5.4
	c0-0.3-0.2-0.5-0.5-0.5H5.9z"/>
<polygon class="st0" points="12.2,19.1 9.1,15.5 9.7,15 12.2,18 19.9,9.2 20.4,9.7 "/>
</svg>
